<svg xmlns="http://www.w3.org/2000/svg" viewBox="0 0 100 100">
  <defs>
    <linearGradient id="grad" x1="0%" y1="0%" x2="100%" y2="100%">
      <stop offset="0%" style="stop-color:#6e40c9;stop-opacity:1" />
      <stop offset="100%" style="stop-color:#553c9a;stop-opacity:1" />
    </linearGradient>
  </defs>
  <rect width="100" height="100" rx="20" fill="url(#grad)"/>
  <path d="M50 25C35.3 25 23.5 36.8 23.5 51.5c0 11.7 7.6 21.6 18.1 25.1 1.3.2 1.8-.6 1.8-1.3 0-.6 0-2.7 0-5-7.4 1.6-9-3.5-9-3.5-1.2-3-3-3.8-3-3.8-2.4-1.7.2-1.6.2-1.6 2.7.2 4.1 2.7 4.1 2.7 2.4 4.1 6.3 2.9 7.8 2.2.2-1.7 1-2.9 1.7-3.5-6-.7-12.3-3-12.3-13.4 0-3 1-5.4 2.8-7.3-.3-.7-1.2-3.5.3-7.2 0 0 2.3-.7 7.4 2.8 2.1-.6 4.4-.9 6.6-.9 2.2 0 4.5.3 6.6.9 5.1-3.5 7.4-2.8 7.4-2.8 1.5 3.7.6 6.5.3 7.2 1.8 1.9 2.8 4.3 2.8 7.3 0 10.4-6.3 12.7-12.4 13.4 1 .8 1.8 2.5 1.8 5 0 3.6 0 6.5 0 7.4 0 .7.5 1.5 1.8 1.3 10.6-3.5 18.2-13.4 18.2-25.1C76.5 36.8 64.7 25 50 25z" fill="white"/>
</svg>
